<?xml version="1.0" encoding="utf-8"?>
<!-- Generator: Adobe Illustrator 24.0.1, SVG Export Plug-In . SVG Version: 6.00 Build 0)  -->
<svg version="1.1" id="Layer_1" xmlns="http://www.w3.org/2000/svg" xmlns:xlink="http://www.w3.org/1999/xlink" x="0px" y="0px"
	 viewBox="0 0 30 30" style="enable-background:new 0 0 30 30;" xml:space="preserve">
<style type="text/css">
	.st0{fill:#1F2444;}
</style>
<g>
	<path class="st0" d="M0,0v30h30V0H0z M5.89,19.82c0.11-0.25,0.23-0.5,0.35-0.75c0.42-0.86,0.89-1.69,1.41-2.5
		c0.28-0.44,0.58-0.87,0.9-1.3c0.5-0.68,1.04-1.33,1.61-1.95l-0.04,1.18c-0.52,0.58-1.01,1.18-1.49,1.81
		c-1.23,1.63-2.14,3.2-2.77,4.44L5.89,19.82z M4.34,24.47c0.31-1.38,0.74-2.73,1.28-4.02c0.05-0.12,0.1-0.24,0.15-0.35l-0.03,0.89
		c-0.14,0.28-0.27,0.54-0.38,0.78c-0.66,1.43-0.91,2.39-0.91,2.4l-0.1,0.34C4.34,24.5,4.33,24.48,4.34,24.47z M12.02,18.89
		c-0.7,0.73-1.59,1.3-2.62,1.62c-0.16,0.05-0.31,0.09-0.48,0.13l-0.02,0c-2.13,0.47-3.77,1.96-4.52,3.85c0,0.01-0.01,0.02-0.02,0.02
		c0.2-0.57,0.62-1.69,1.09-2.69c0.11-0.23,0.23-0.49,0.37-0.76c0,0,0,0,0,0l0.01,0l0-0.01c1.3-1.17,2.24-1.85,3.05-2.24
		c0.55-0.26,1.78-0.53,2.39-0.63c0.91-0.14,1.23-0.29,1.56-0.47c0.03-0.01,0.05,0.01,0.04,0.04C12.64,18.16,12.35,18.54,12.02,18.89
		z M15.45,16.36c-2.55,1.15-1.7,0.96-3.42,1.48c-0.62,0.19-1.82,0.26-2.93,0.69c-0.87,0.33-1.8,1.05-3.13,2.26
		c0.63-1.23,1.54-2.8,2.76-4.42c0.43-0.57,0.91-1.16,1.45-1.76c2.1-0.76,4.47-0.21,4.75-0.19c0.4,0.03,0.8,0,1.21-0.09
		c0.61-0.13,1.17-0.23,1.64-0.58c0,0,0,0,0.01-0.01l0,0c0.02-0.02,0.05,0.01,0.04,0.03C17.34,14.85,16.56,15.86,15.45,16.36z
		 M22.45,9.18c-0.46,0.64-0.89,1.3-1.29,1.99c0,0,0,0,0,0c-0.15,0.26-0.3,0.52-0.44,0.79c-0.09,0.16-0.23,0.29-0.4,0.35
		c-0.34,0.13-0.67,0.28-0.99,0.45c-0.19,0.1-1.28,0.64-1.37,0.7c-1.71,1.03-3.28,0.79-3.57,0.71c-0.32-0.09-2-0.38-4.04,0.26
		c2.33-2.55,5.65-5.21,10.2-6.8c0.08,0.1,0.23,0.14,0.4,0.11c0,0,0.01,0,0.01,0c0.21-0.05,0.36-0.22,0.33-0.39
		c-0.01-0.07-0.05-0.12-0.11-0.16c-0.09-0.06-0.22-0.07-0.35-0.03c-0.21,0.06-0.35,0.23-0.33,0.38c-2.01,0.7-3.91,1.65-5.64,2.82
		c-1.67,1.13-3.22,2.48-4.62,4.02l0.04-1.17l-0.01,0c0.07-0.07,0.13-0.14,0.2-0.21c0.29-0.3,0.59-0.6,0.89-0.89
		c0.12-0.11,0.24-0.23,0.36-0.34c0.26-0.24,0.53-0.48,0.81-0.71c0.15-0.13,0.31-0.26,0.47-0.38c1.28-1.02,2.68-1.92,4.17-2.67
		c0.4-0.2,0.8-0.39,1.21-0.57c1.45-0.64,2.99-1.14,4.6-1.49c0.09-0.02,0.18-0.04,0.27-0.06c0.8-0.17,1.59-0.29,2.39-0.37
		c0.03,0,0.04,0.03,0.02,0.05C24.46,6.65,23.39,7.87,22.45,9.18z M20.63,7.51c-0.02-0.07,0.07-0.19,0.23-0.23
		c0.01,0,0.02-0.01,0.03-0.01c0.08-0.02,0.16-0.01,0.21,0.02c0.03,0.02,0.04,0.04,0.05,0.07c0.02,0.1-0.09,0.21-0.23,0.24
		C20.79,7.63,20.65,7.59,20.63,7.51z"/>
</g>
</svg>
