<?xml version="1.0" encoding="utf-8"?>
<!-- Generator: Adobe Illustrator 24.0.1, SVG Export Plug-In . SVG Version: 6.00 Build 0)  -->
<svg version="1.1" id="Layer_1" xmlns="http://www.w3.org/2000/svg" xmlns:xlink="http://www.w3.org/1999/xlink" x="0px" y="0px"
	 viewBox="0 0 30 30" style="enable-background:new 0 0 30 30;" xml:space="preserve">
<style type="text/css">
	.st0{fill:#FFFFFF;}
	.st1{fill:url(#SVGID_1_);}
	.st2{fill:url(#SVGID_2_);}
	.st3{fill:url(#SVGID_3_);}
	.st4{fill:url(#SVGID_4_);}
	.st5{fill:url(#SVGID_5_);}
	.st6{fill:url(#SVGID_6_);}
</style>
<g>
	<rect class="st0" width="30" height="30"/>
</g>
<g>
	<linearGradient id="SVGID_1_" gradientUnits="userSpaceOnUse" x1="4.3364" y1="22.2934" x2="5.7692" y2="22.2934">
		<stop  offset="0" style="stop-color:#1F2444"/>
		<stop  offset="0.2154" style="stop-color:#2D3568"/>
		<stop  offset="0.6903" style="stop-color:#515EC1"/>
		<stop  offset="1" style="stop-color:#6A7BFF"/>
	</linearGradient>
	<path class="st1" d="M4.36,24.5l0.1-0.34c0-0.01,0.25-0.96,0.91-2.4c0.11-0.24,0.24-0.5,0.38-0.78l0.03-0.89
		c-0.05,0.12-0.1,0.24-0.15,0.35c-0.54,1.3-0.97,2.64-1.28,4.02C4.33,24.48,4.34,24.5,4.36,24.5z"/>
	<linearGradient id="SVGID_2_" gradientUnits="userSpaceOnUse" x1="5.859" y1="17.0277" x2="10.1612" y2="17.0277">
		<stop  offset="0" style="stop-color:#1F2444"/>
		<stop  offset="0.2154" style="stop-color:#2D3568"/>
		<stop  offset="0.6903" style="stop-color:#515EC1"/>
		<stop  offset="1" style="stop-color:#6A7BFF"/>
	</linearGradient>
	<path class="st2" d="M5.86,20.74c0.63-1.24,1.54-2.81,2.77-4.44c0.48-0.63,0.97-1.23,1.49-1.81l0.04-1.18
		c-0.57,0.62-1.11,1.28-1.61,1.95c-0.31,0.42-0.61,0.86-0.9,1.3c-0.52,0.8-0.99,1.64-1.41,2.5c-0.12,0.25-0.24,0.5-0.35,0.75
		L5.86,20.74z"/>
	<linearGradient id="SVGID_3_" gradientUnits="userSpaceOnUse" x1="4.372" y1="21.0994" x2="12.8886" y2="21.0994">
		<stop  offset="0" style="stop-color:#1F2444"/>
		<stop  offset="0.2154" style="stop-color:#2D3568"/>
		<stop  offset="0.6903" style="stop-color:#515EC1"/>
		<stop  offset="1" style="stop-color:#6A7BFF"/>
	</linearGradient>
	<path class="st3" d="M12.85,17.7c-0.33,0.18-0.64,0.32-1.56,0.47c-0.61,0.1-1.85,0.37-2.39,0.63c-0.81,0.39-1.75,1.07-3.05,2.24
		l0,0.01l-0.01,0c0,0,0,0,0,0c-0.14,0.27-0.26,0.53-0.37,0.76c-0.47,1.01-0.89,2.12-1.09,2.69c0.01,0,0.01-0.01,0.02-0.02
		c0.75-1.89,2.39-3.38,4.52-3.85l0.02,0c0.16-0.04,0.32-0.08,0.48-0.13c1.03-0.31,1.92-0.88,2.62-1.62
		c0.33-0.35,0.62-0.73,0.86-1.15C12.9,17.72,12.87,17.69,12.85,17.7z"/>
	<linearGradient id="SVGID_4_" gradientUnits="userSpaceOnUse" x1="5.9632" y1="17.2627" x2="17.8309" y2="17.2627">
		<stop  offset="0" style="stop-color:#1F2444"/>
		<stop  offset="0.2154" style="stop-color:#2D3568"/>
		<stop  offset="0.6903" style="stop-color:#515EC1"/>
		<stop  offset="1" style="stop-color:#6A7BFF"/>
	</linearGradient>
	<path class="st4" d="M17.79,13.74L17.79,13.74C17.78,13.74,17.78,13.75,17.79,13.74c-0.48,0.35-1.04,0.45-1.65,0.59
		c-0.41,0.09-0.81,0.12-1.21,0.09c-0.28-0.02-2.65-0.56-4.75,0.19c-0.54,0.6-1.02,1.19-1.45,1.76c-1.22,1.62-2.13,3.18-2.76,4.42
		c1.33-1.22,2.26-1.93,3.13-2.26c1.12-0.43,2.31-0.5,2.93-0.69c1.72-0.51,0.87-0.33,3.42-1.48c1.11-0.5,1.89-1.51,2.38-2.59
		C17.84,13.75,17.81,13.72,17.79,13.74z"/>
	<linearGradient id="SVGID_5_" gradientUnits="userSpaceOnUse" x1="20.6289" y1="7.4358" x2="21.1518" y2="7.4358">
		<stop  offset="0" style="stop-color:#1F2444"/>
		<stop  offset="0.2154" style="stop-color:#2D3568"/>
		<stop  offset="0.6903" style="stop-color:#515EC1"/>
		<stop  offset="1" style="stop-color:#6A7BFF"/>
	</linearGradient>
	<path class="st5" d="M21.15,7.36L21.15,7.36c0-0.03-0.02-0.05-0.05-0.07c-0.05-0.03-0.13-0.04-0.21-0.02
		c-0.01,0-0.02,0.01-0.03,0.01c-0.16,0.05-0.25,0.16-0.23,0.23c0.02,0.08,0.16,0.12,0.29,0.09C21.06,7.57,21.17,7.46,21.15,7.36z"/>
	<linearGradient id="SVGID_6_" gradientUnits="userSpaceOnUse" x1="10.2375" y1="9.9634" x2="25.6636" y2="9.9634">
		<stop  offset="0" style="stop-color:#1F2444"/>
		<stop  offset="0.2154" style="stop-color:#2D3568"/>
		<stop  offset="0.6903" style="stop-color:#515EC1"/>
		<stop  offset="1" style="stop-color:#6A7BFF"/>
	</linearGradient>
	<path class="st6" d="M25.63,5.5c-0.79,0.08-1.59,0.21-2.39,0.37c-0.09,0.02-0.18,0.04-0.27,0.06c-1.61,0.35-3.15,0.86-4.6,1.49
		c-0.41,0.18-0.81,0.37-1.21,0.57c-1.49,0.75-2.89,1.65-4.17,2.67c-0.16,0.13-0.31,0.25-0.47,0.38c-0.27,0.23-0.54,0.46-0.81,0.71
		c-0.12,0.11-0.24,0.22-0.36,0.34c-0.3,0.29-0.6,0.59-0.89,0.89c-0.07,0.07-0.13,0.14-0.2,0.21l0.01,0l-0.04,1.17
		c1.4-1.55,2.95-2.89,4.62-4.02c1.73-1.17,3.63-2.12,5.64-2.82c-0.02-0.15,0.11-0.31,0.33-0.38c0.13-0.04,0.26-0.03,0.35,0.03
		c0.06,0.04,0.1,0.1,0.11,0.16c0.03,0.17-0.12,0.34-0.33,0.39c0,0-0.01,0-0.01,0c-0.17,0.04-0.32-0.01-0.4-0.11
		c-4.55,1.59-7.87,4.25-10.2,6.8c2.03-0.64,3.72-0.34,4.04-0.26c0.29,0.08,1.86,0.31,3.57-0.71c0.09-0.05,1.18-0.6,1.37-0.7
		c0.32-0.17,0.65-0.31,0.99-0.45c0.17-0.07,0.31-0.19,0.4-0.35c0.14-0.27,0.29-0.53,0.44-0.79c0,0,0,0,0,0
		c0.4-0.68,0.83-1.35,1.29-1.99c0.94-1.31,2.02-2.53,3.21-3.63C25.67,5.53,25.66,5.5,25.63,5.5z"/>
</g>
</svg>
